<?xml version="1.0" standalone="no"?>
<!DOCTYPE svg PUBLIC "-//W3C//DTD SVG 20010904//EN"
 "http://www.w3.org/TR/2001/REC-SVG-20010904/DTD/svg10.dtd">
<svg version="1.0" xmlns="http://www.w3.org/2000/svg"
 width="1000.000000pt" height="1000.000000pt" viewBox="0 0 1000.000000 1000.000000"
 preserveAspectRatio="xMidYMid meet">

<g transform="translate(0.000000,1000.000000) scale(0.100000,-0.100000)"
fill="#000000" stroke="none">
<path d="M4690 9573 c-19 -1 -87 -8 -150 -14 -304 -28 -710 -118 -1020 -224
-1615 -557 -2791 -1965 -3049 -3651 -39 -254 -46 -363 -46 -699 0 -347 8 -455
50 -722 183 -1142 767 -2145 1670 -2870 672 -539 1462 -868 2350 -979 176 -22
678 -30 872 -15 1124 90 2161 574 2938 1372 569 584 968 1292 1165 2062 317
1245 112 2542 -574 3625 -285 450 -707 901 -1145 1226 -677 502 -1458 799
-2317 881 -141 13 -634 19 -744 8z m1981 -1975 l1656 -683 -1654 -3 c-909 -1
-2399 -1 -3310 0 l-1656 3 1649 681 c907 375 1651 682 1654 683 3 1 750 -306
1661 -681z m-3821 -1763 l0 -865 -345 0 -345 0 0 865 0 865 345 0 345 0 0
-865z m1010 0 l0 -865 -350 0 -350 0 0 865 0 865 350 0 350 0 0 -865z m1000 0
l0 -865 -345 0 -345 0 0 865 0 865 345 0 345 0 0 -865z m1010 0 l0 -865 -350
0 -350 0 0 865 0 865 350 0 350 0 0 -865z m1000 0 l0 -865 -345 0 -345 0 0
865 0 865 345 0 345 0 0 -865z m1000 0 l0 -865 -345 0 -345 0 0 865 0 865 345
0 345 0 0 -865z m0 -1430 l0 -355 -2850 0 -2850 0 0 355 0 355 2850 0 2850 0
0 -355z m0 -865 l0 -360 -2850 0 -2850 0 0 360 0 360 2850 0 2850 0 0 -360z
m0 -890 l0 -360 -2850 0 -2850 0 0 360 0 360 2850 0 2850 0 0 -360z"/>
</g>
</svg>
